<?xml version="1.0" standalone="no"?>
<!DOCTYPE svg PUBLIC "-//W3C//DTD SVG 20010904//EN"
 "http://www.w3.org/TR/2001/REC-SVG-20010904/DTD/svg10.dtd">
<svg version="1.0" xmlns="http://www.w3.org/2000/svg"
 width="856.000000pt" height="856.000000pt" viewBox="0 0 856.000000 856.000000"
 preserveAspectRatio="xMidYMid meet">
<metadata>
Created by potrace 1.11, written by Peter Selinger 2001-2013
</metadata>
<g transform="translate(0.000000,856.000000) scale(0.100000,-0.100000)"
fill="#000000" stroke="none">
<path d="M3737 5704 c-1 -2 -25 -6 -52 -10 -28 -3 -57 -8 -65 -9 -122 -26
-164 -37 -179 -45 -10 -5 -21 -7 -24 -3 -4 3 -13 0 -22 -7 -8 -7 -15 -9 -15
-5 0 4 -7 2 -15 -5 -8 -7 -15 -10 -15 -7 0 13 -313 -122 -330 -143 -3 -3 -30
-22 -61 -41 l-55 -34 -1195 1 -1194 1 -58 -58 -58 -58 5 -68 c8 -116 20 -177
42 -219 21 -38 58 -62 110 -69 87 -12 326 -17 1054 -20 421 -2 776 -6 790 -9
14 -2 30 -5 36 -5 35 -3 7 -100 -46 -161 l-22 -24 -401 1 c-221 1 -722 3
-1112 4 l-711 2 -53 -49 c-87 -80 -89 -92 -53 -276 21 -109 90 -162 223 -169
41 -2 585 -4 1209 -4 1210 1 1196 0 1222 48 6 12 14 24 18 27 3 3 19 40 34 84
36 102 106 256 117 256 5 0 9 5 9 11 0 47 228 296 335 365 33 21 62 42 63 47
2 4 10 7 17 7 7 0 15 4 17 9 8 21 237 116 298 123 14 2 30 6 35 9 17 10 387 3
446 -9 31 -6 76 -16 100 -23 24 -7 47 -13 52 -15 4 -1 10 -3 15 -4 4 -1 10 -2
15 -1 4 0 7 -3 7 -9 0 -6 3 -9 8 -8 4 1 38 -13 76 -30 38 -18 73 -32 77 -32 5
0 9 -5 9 -12 0 -6 3 -9 6 -5 4 3 27 -8 53 -26 205 -141 352 -359 427 -635 43
-159 76 -216 127 -226 18 -3 31 1 39 13 7 9 27 27 44 38 28 20 33 21 52 7 11
-8 41 -17 67 -21 38 -5 49 -2 64 14 28 30 50 77 53 113 2 31 3 31 18 12 15
-18 17 -18 27 -3 12 19 8 116 -7 186 -6 28 -11 58 -11 68 0 9 -4 17 -9 17 -4
0 -6 9 -3 20 3 11 1 20 -4 20 -5 0 -10 6 -11 13 -5 58 -123 318 -162 357 -3 3
-21 28 -40 55 -35 51 -82 105 -155 178 -76 75 -281 220 -312 220 -7 0 -13 3
-13 6 0 3 -27 17 -60 31 -33 14 -60 28 -60 33 0 4 -6 7 -12 7 -11 0 -68 21
-173 65 -11 4 -24 9 -30 11 -5 2 -30 10 -55 19 -113 42 -212 57 -388 59 -95 1
-174 1 -175 0z"/>
<path d="M3404 4355 c-14 -14 -35 -32 -47 -40 -23 -15 -67 -10 -67 7 0 6 -6 8
-14 5 -8 -3 -17 -3 -21 1 -3 4 -20 7 -36 8 -25 1 -35 -5 -57 -38 -22 -35 -26
-50 -24 -104 1 -37 -2 -64 -7 -64 -12 0 -33 35 -25 42 2 3 -2 11 -11 18 -20
17 -22 6 -10 -95 10 -78 13 -100 15 -100 1 0 4 -11 6 -25 6 -41 9 -55 15 -65
4 -5 9 -23 13 -40 13 -52 113 -267 128 -273 4 -2 8 -8 8 -14 0 -40 199 -270
303 -351 16 -12 34 -27 40 -32 30 -26 135 -90 205 -125 135 -66 259 -120 278
-120 8 0 14 -5 14 -11 0 -6 6 -9 14 -6 7 3 17 2 22 -3 8 -7 126 -47 165 -55
73 -15 117 -18 284 -18 177 0 236 3 293 17 12 3 30 8 40 10 195 46 444 133
492 172 8 6 31 20 50 29 19 10 37 21 40 24 3 4 22 17 44 29 37 22 74 26 206
21 19 -1 41 -1 48 0 6 1 18 1 25 2 12 1 114 0 152 -1 11 -1 27 -1 35 -1 8 0
40 0 70 0 30 0 61 0 68 0 23 2 37 2 107 2 39 0 79 -1 90 -1 11 -1 34 -1 50 -1
17 0 48 0 70 0 38 -1 47 0 78 2 13 1 111 0 167 -2 19 -1 41 -1 48 0 6 1 18 1
25 2 12 1 114 0 152 -1 11 -1 27 -1 35 -1 8 0 40 0 70 0 30 0 61 0 68 0 23 2
37 2 107 2 39 0 79 -1 90 -1 11 -1 34 -1 50 -1 17 0 48 0 70 0 38 -1 47 0 78
2 13 1 111 0 167 -2 19 -1 41 -1 48 0 6 1 18 1 25 2 6 1 39 1 72 0 33 0 73 -1
88 -1 16 0 31 -1 35 -2 23 -4 91 52 123 102 16 25 19 109 5 175 -4 17 -7 36
-8 43 -1 6 -5 12 -10 12 -4 0 -8 13 -8 29 0 20 -9 37 -30 54 -31 27 -97 53
-107 43 -4 -3 -11 -2 -17 3 -10 9 -717 19 -1546 22 -157 1 -293 5 -302 10 -10
6 -18 17 -18 26 0 33 62 151 86 164 24 12 223 14 1272 9 74 0 138 2 143 5 5 4
9 3 9 -2 0 -4 71 -7 158 -6 86 1 267 2 402 3 269 2 257 0 334 71 25 23 29 34
29 80 0 127 -29 248 -66 271 -35 23 -111 40 -180 42 -34 1 -68 5 -74 9 -6 4
-14 4 -16 -1 -3 -4 -23 -6 -44 -4 -82 6 -99 6 -110 -1 -6 -4 -14 -3 -17 2 -3
5 -21 6 -40 1 -19 -4 -40 -4 -47 1 -7 4 -19 3 -26 -3 -7 -6 -13 -7 -13 -2 0
10 -1925 12 -1935 2 -4 -4 -13 -4 -21 -1 -16 6 -76 -16 -70 -26 2 -3 -4 -23
-14 -44 -10 -21 -29 -68 -41 -105 -12 -37 -29 -77 -37 -89 -8 -13 -12 -23 -9
-23 10 0 -85 -164 -131 -225 -79 -106 -295 -305 -331 -305 -5 0 -11 -4 -13 -9
-4 -11 -128 -77 -181 -97 -41 -15 -90 -30 -132 -39 -11 -3 -31 -8 -45 -11 -14
-3 -46 -7 -72 -8 -27 0 -48 -4 -48 -7 0 -7 -222 -3 -260 5 -14 3 -38 7 -55 10
-81 13 -105 19 -175 42 -128 43 -269 120 -354 194 -54 46 -138 134 -166 175
-56 81 -160 299 -164 345 -1 9 -5 20 -8 25 -3 6 -11 35 -18 65 -7 30 -18 64
-23 75 -6 11 -10 23 -10 26 3 10 -67 89 -78 89 -6 0 -21 -11 -35 -25z"/>
</g>
</svg>
